<svg xmlns="http://www.w3.org/2000/svg" viewBox="0 0 100 100" width="100" height="100">
  <style>
    .petal {
      fill: #fbd5d5;
      stroke: #f8b4b4;
      stroke-width: 1;
    }
    @keyframes rotate {
      from { transform: rotate(0deg); }
      to { transform: rotate(360deg); }
    }
    .flower {
      animation: rotate 30s infinite linear;
      transform-origin: center;
    }
  </style>
  <g class="flower">
    <path class="petal" d="M50,15 C60,25 70,35 50,60 C30,35 40,25 50,15 Z" />
    <path class="petal" d="M50,15 C60,25 70,35 50,60 C30,35 40,25 50,15 Z" transform="rotate(72 50 50)" />
    <path class="petal" d="M50,15 C60,25 70,35 50,60 C30,35 40,25 50,15 Z" transform="rotate(144 50 50)" />
    <path class="petal" d="M50,15 C60,25 70,35 50,60 C30,35 40,25 50,15 Z" transform="rotate(216 50 50)" />
    <path class="petal" d="M50,15 C60,25 70,35 50,60 C30,35 40,25 50,15 Z" transform="rotate(288 50 50)" />
    <circle cx="50" cy="50" r="10" fill="#f8b4b4" />
  </g>
</svg>
